<mxfile host="app.diagrams.net" modified="2021-06-02T08:54:33.714Z" agent="5.0 (Windows NT 10.0; Win64; x64) AppleWebKit/537.36 (KHTML, like Gecko) Chrome/91.0.4472.77 Safari/537.36 Edg/91.0.864.37" etag="RWHAJT54flkf9CrVI9U0" version="14.7.3" type="github">
  <diagram id="mTR3_TGDz6hFLVVM_VdR" name="第 1 页">
    <mxGraphModel dx="440" dy="247" grid="1" gridSize="10" guides="1" tooltips="1" connect="1" arrows="1" fold="1" page="1" pageScale="1" pageWidth="827" pageHeight="1169" math="0" shadow="0">
      <root>
        <mxCell id="0" />
        <mxCell id="1" parent="0" />
        <mxCell id="lViSOvlmoO3MquDnPFCZ-1" value="" style="strokeWidth=2;html=1;shape=mxgraph.flowchart.annotation_1;align=left;pointerEvents=1;rotation=-90;strokeColor=#2185BA;" vertex="1" parent="1">
          <mxGeometry x="220" y="250" width="10" height="50" as="geometry" />
        </mxCell>
        <mxCell id="lViSOvlmoO3MquDnPFCZ-3" value="" style="strokeWidth=2;html=1;shape=mxgraph.flowchart.annotation_1;align=left;pointerEvents=1;rotation=-90;strokeColor=#2185BA;" vertex="1" parent="1">
          <mxGeometry x="270" y="250" width="10" height="50" as="geometry" />
        </mxCell>
        <mxCell id="lViSOvlmoO3MquDnPFCZ-4" value="" style="strokeWidth=2;html=1;shape=mxgraph.flowchart.annotation_1;align=left;pointerEvents=1;rotation=-90;strokeColor=#2185BA;" vertex="1" parent="1">
          <mxGeometry x="320" y="250" width="10" height="50" as="geometry" />
        </mxCell>
        <mxCell id="lViSOvlmoO3MquDnPFCZ-5" value="" style="strokeWidth=2;html=1;shape=mxgraph.flowchart.annotation_1;align=left;pointerEvents=1;rotation=-90;strokeColor=#2185BA;" vertex="1" parent="1">
          <mxGeometry x="370" y="250" width="10" height="50" as="geometry" />
        </mxCell>
        <mxCell id="lViSOvlmoO3MquDnPFCZ-6" value="" style="strokeWidth=2;html=1;shape=mxgraph.flowchart.annotation_1;align=left;pointerEvents=1;rotation=-90;strokeColor=#2185BA;" vertex="1" parent="1">
          <mxGeometry x="420" y="250" width="10" height="50" as="geometry" />
        </mxCell>
        <mxCell id="lViSOvlmoO3MquDnPFCZ-7" value="" style="strokeWidth=2;html=1;shape=mxgraph.flowchart.annotation_1;align=left;pointerEvents=1;rotation=-90;strokeColor=#2185BA;" vertex="1" parent="1">
          <mxGeometry x="470" y="250" width="10" height="50" as="geometry" />
        </mxCell>
        <mxCell id="lViSOvlmoO3MquDnPFCZ-8" value="" style="endArrow=open;html=1;strokeColor=#007D65;endFill=0;" edge="1" parent="1">
          <mxGeometry width="50" height="50" relative="1" as="geometry">
            <mxPoint x="300" y="248" as="sourcePoint" />
            <mxPoint x="300" y="268" as="targetPoint" />
          </mxGeometry>
        </mxCell>
      </root>
    </mxGraphModel>
  </diagram>
</mxfile>
